<svg width="13" height="13" xmlns="http://www.w3.org/2000/svg" version="1.1" xml:space="preserve">
 <g>
  <title>Layer 1</title>
  <path class="st0" d="m5.86257,0.72259c-0.44557,0.08911 -0.6238,0.08911 -0.89115,0.17823c-0.53469,0.17823 -1.06938,0.35646 -1.51495,0.6238c-1.42584,0.89115 -2.49522,2.49522 -2.58433,4.27752c-0.08911,0.98026 0.17823,2.04964 0.6238,2.94079c0.35646,0.6238 0.6238,0.98026 1.06938,1.51495c0.35646,0.35646 0.89115,0.71292 1.42584,0.98026c1.15849,0.53469 2.31699,0.71292 3.5646,0.44557c1.06938,-0.26734 1.96053,-0.71292 2.76256,-1.51495c0.80203,-0.80203 1.33672,-1.87141 1.60407,-3.02991c0.08911,-0.44557 0.08911,-1.33672 0,-1.7823c-0.17823,-0.98026 -0.71292,-2.04964 -1.33672,-2.76256c-0.80203,-0.89115 -2.04964,-1.60407 -3.20814,-1.7823c-0.35646,-0.08911 -1.33672,-0.08911 -1.51495,-0.08911zm1.06938,0.35646l0.08911,0l-0.08911,0c-0.17823,0.08911 -0.17823,0.08911 -0.17823,0c0,0 0,0 0.17823,0zm-0.89115,0.08911c0.08911,0 0.17823,0.08911 0.26734,0.08911l0.17823,0.08911l-0.08911,0.17823c-0.08911,0.08911 -0.08911,0.17823 -0.17823,0.26734c-0.08911,0.08911 -0.08911,0.08911 -0.17823,0.08911c-0.17823,0 -0.71292,0.08911 -0.98026,0.17823c-0.35646,0.08911 -0.80203,0.35646 -1.15849,0.6238l-0.26734,0.17823l-0.17823,-0.08911c-0.08911,0 -0.26734,-0.08911 -0.44557,-0.08911l-0.26734,0l0,-0.08911c0,-0.17823 0.17823,-0.26734 0.53469,-0.53469c0.44557,-0.35646 1.06938,-0.6238 1.69318,-0.71292c0.6238,-0.26734 0.89115,-0.26734 1.06938,-0.17823zm3.38637,0.98026c0.35646,0.26734 0.89115,0.80203 1.06938,1.06938c0.08911,0.17823 0.26734,0.44557 0.35646,0.6238c0.17823,0.35646 0.44557,0.98026 0.35646,0.98026c0,0 -0.08911,-0.08911 -0.26734,-0.35646c-0.26734,-0.44557 -0.6238,-0.89115 -1.06938,-1.33672c-0.26734,-0.26734 -0.44557,-0.44557 -0.53469,-0.6238c-0.08911,-0.08911 -0.17823,-0.26734 -0.26734,-0.35646c-0.08911,-0.08911 -0.08911,-0.17823 -0.08911,-0.17823c0.08911,-0.08911 0.26734,0 0.44557,0.17823zm-2.85168,0.17823c0.17823,0.08911 0.44557,0.26734 0.71292,0.53469l0.26734,0.17823l0,0.17823c0,0.26734 0,0.80203 -0.08911,1.24761c-0.08911,0.44557 -0.26734,0.98026 -0.26734,0.98026c0,0 -0.17823,0.08911 -0.44557,0.17823c-0.17823,0.08911 -0.6238,0.26734 -0.80203,0.35646c-0.26734,0.08911 -0.44557,0.17823 -0.53469,0.26734c-0.08911,0 -0.08911,0 -0.71292,-0.44557c-0.35646,-0.26734 -0.80203,-0.6238 -0.98026,-0.71292l-0.26734,-0.26734l0,-0.17823c0,-0.17823 0,-0.6238 0.08911,-0.98026c0.08911,-0.26734 0.08911,-0.26734 0.17823,-0.44557c0.17823,-0.17823 0.6238,-0.44557 0.98026,-0.6238c0.44557,-0.26734 0.89115,-0.35646 1.33672,-0.35646c0.35646,0 0.35646,0 0.53469,0.08911zm3.11902,1.06938c0.44557,0.44557 0.6238,0.71292 0.89115,1.15849c0.26734,0.44557 0.35646,0.71292 0.35646,0.89115c0,0.35646 -0.17823,1.24761 -0.26734,1.24761c-0.08911,0 -1.69318,0.35646 -1.69318,0.35646c0,0 -0.08911,-0.08911 -0.08911,-0.17823c-0.17823,-0.35646 -0.71292,-0.89115 -1.06938,-1.15849l-0.17823,-0.17823l0.08911,-0.26734c0.17823,-0.71292 0.26734,-1.24761 0.26734,-1.7823l0,-0.35646l0.17823,0c0.26734,-0.08911 0.71292,-0.08911 0.98026,-0.08911l0.17823,0l0.35646,0.35646zm-8.19857,2.22787c0.08911,0.17823 0.08911,0.17823 0,0.35646c0,0.08911 0,0.44557 0,0.71292c0,0.53469 0.08911,0.89115 0.26734,1.42584c0.08911,0.26734 0.08911,0.26734 0,0.35646c0,0.08911 -0.08911,0.08911 -0.08911,0.08911c0,0 -0.26734,-0.6238 -0.35646,-0.98026c-0.17823,-0.53469 -0.17823,-0.80203 -0.17823,-1.42584c0,-0.53469 0,-0.80203 0.17823,-1.24761l0,-0.08911l0.08911,0.26734c0,0.17823 0.08911,0.44557 0.08911,0.53469zm2.67345,0.17823l0.98026,0.71292l0,0.6238c0,0.6238 0.08911,1.06938 0.08911,1.24761c0,0.08911 -0.89115,0.6238 -1.51495,0.89115c-0.26734,0.17823 -0.26734,0.17823 -0.6238,-0.08911c-0.35646,-0.26734 -0.71292,-0.53469 -0.80203,-0.71292c-0.08911,-0.26734 -0.26734,-0.71292 -0.35646,-1.06938c-0.08911,-0.26734 -0.08911,-0.44557 -0.08911,-0.89115c0,-0.35646 0,-0.6238 0,-0.71292c0.08911,-0.17823 0.6238,-0.53469 1.06938,-0.71292c0.08911,-0.08911 0.17823,-0.08911 0.17823,-0.08911c0.08911,0 0.53469,0.35646 1.06938,0.80203zm6.77273,1.69318c0.08911,0.17823 0.08911,0.35646 0.08911,0.53469c0,0.26734 0,0.26734 -0.08911,0.53469c-0.35646,0.80203 -0.98026,1.51495 -1.42584,1.69318c-0.35646,0.17823 -0.71292,0.26734 -0.98026,0.26734l-0.26734,0l-0.26734,-0.71292c-0.17823,-0.35646 -0.26734,-0.71292 -0.26734,-0.71292c0,0 0.08911,-0.08911 0.17823,-0.17823c0.35646,-0.44557 0.6238,-0.80203 0.89115,-1.24761l0.17823,-0.26734l0.89115,-0.17823l0.89115,-0.17823l0.08911,0.08911c-0.08911,0 0,0.17823 0.08911,0.35646zm-5.16867,1.42584c0.53469,0.17823 1.06938,0.35646 1.42584,0.35646c0.26734,0 0.17823,-0.08911 0.53469,0.80203l0.26734,0.6238l-0.08911,0.08911c-0.17823,0.17823 -0.80203,0.44557 -1.15849,0.53469c-0.17823,0.08911 -0.35646,0.08911 -0.44557,0.08911c-0.17823,0 -0.26734,0 -0.6238,-0.17823c-0.17823,-0.08911 -0.6238,-0.26734 -0.98026,-0.44557c-0.6238,-0.26734 -0.6238,-0.26734 -0.80203,-0.71292c-0.17823,-0.44557 -0.17823,-0.35646 0.17823,-0.53469c0.35646,-0.17823 0.98026,-0.53469 1.24761,-0.71292c0.08911,-0.08911 0.17823,-0.08911 0.17823,-0.08911s0.17823,0.08911 0.26734,0.17823z" fill="#91979C" id="svg_1"/>
 </g>

</svg>